<svg width="76" height="76" viewBox="0 0 76 76" fill="none" xmlns="http://www.w3.org/2000/svg">
<path d="M64.125 0L11.875 0C5.31662 0 0 5.31662 0 11.875L0 64.125C0 70.6834 5.31662 76 11.875 76H64.125C70.6834 76 76 70.6834 76 64.125V11.875C76 5.31662 70.6834 0 64.125 0Z" fill="#FF0000"/>
<path d="M57 38C57 27.55 48.45 19 38 19C27.55 19 19 27.55 19 38C19 47.5 25.8875 55.3375 34.9125 56.7625V43.4625H30.1625V38H34.9125V33.725C34.9125 28.975 37.7625 26.3625 42.0375 26.3625C44.175 26.3625 46.3125 26.8375 46.3125 26.8375V31.5875H43.9375C41.5625 31.5875 40.85 33.0125 40.85 34.4375V38H46.075L45.125 43.4625H40.6125V57C50.1125 55.575 57 47.5 57 38Z" fill="white"/>
</svg>
