<svg width="72" height="75" viewBox="0 0 72 75" fill="none" xmlns="http://www.w3.org/2000/svg">
<path d="M60.75 0L11.25 0C5.0368 0 0 5.24666 0 11.7188L0 63.2812C0 69.7533 5.0368 75 11.25 75H60.75C66.9632 75 72 69.7533 72 63.2812V11.7188C72 5.24666 66.9632 0 60.75 0Z" fill="#FF0000"/>
<path d="M36.0002 21.5625C40.9502 21.5625 41.6252 21.5625 43.6502 21.5625C45.4502 21.5625 46.3502 22.0313 47.0252 22.2656C47.9252 22.7344 48.6002 22.9688 49.2752 23.6719C49.9502 24.375 50.4002 25.0781 50.6252 26.0156C50.8502 26.7188 51.0752 27.6563 51.3002 29.5313C51.3002 31.6406 51.3002 32.1094 51.3002 37.5C51.3002 42.8906 51.3002 43.3594 51.3002 45.4688C51.3002 47.3438 50.8502 48.2813 50.6252 48.9844C50.1752 49.9219 49.9502 50.625 49.2752 51.3281C48.6002 52.0313 47.9252 52.5 47.0252 52.7344C46.3502 52.9688 45.4502 53.2031 43.6502 53.4375C41.6252 53.4375 41.1752 53.4375 36.0002 53.4375C30.8252 53.4375 30.3752 53.4375 28.3502 53.4375C26.5502 53.4375 25.6502 52.9688 24.9752 52.7344C24.0752 52.2656 23.4002 52.0313 22.7252 51.3281C22.0502 50.625 21.6002 49.9219 21.3752 48.9844C21.1502 48.2813 20.9252 47.3438 20.7002 45.4688C20.7002 43.3594 20.7002 42.8906 20.7002 37.5C20.7002 32.1094 20.7002 31.6406 20.7002 29.5313C20.7002 27.6563 21.1502 26.7188 21.3752 26.0156C21.8252 25.0781 22.0502 24.375 22.7252 23.6719C23.4002 22.9688 24.0752 22.5 24.9752 22.2656C25.6502 22.0313 26.5502 21.7969 28.3502 21.5625C30.3752 21.5625 31.0502 21.5625 36.0002 21.5625ZM36.0002 18.0469C30.8252 18.0469 30.3752 18.0469 28.3502 18.0469C26.3252 18.0469 24.9752 18.5156 23.8502 18.9844C22.7252 19.4531 21.6002 20.1563 20.4752 21.3281C19.3502 22.5 18.9002 23.4375 18.2252 24.8438C17.7752 26.0156 17.5502 27.4219 17.3252 29.5313C17.3252 31.6406 17.3252 32.3438 17.3252 37.5C17.3252 42.8906 17.3252 43.3594 17.3252 45.4688C17.3252 47.5781 17.7752 48.9844 18.2252 50.1563C18.6752 51.3281 19.3502 52.5 20.4752 53.6719C21.6002 54.8438 22.5002 55.3125 23.8502 56.0156C24.9752 56.4844 26.3252 56.7188 28.3502 56.9531C30.3752 56.9531 31.0502 56.9531 36.0002 56.9531C40.9502 56.9531 41.6252 56.9531 43.6502 56.9531C45.6752 56.9531 47.0252 56.4844 48.1502 56.0156C49.2752 55.5469 50.4002 54.8438 51.5252 53.6719C52.6502 52.5 53.1002 51.5625 53.7752 50.1563C54.2252 48.9844 54.4502 47.5781 54.6752 45.4688C54.6752 43.3594 54.6752 42.6563 54.6752 37.5C54.6752 32.3438 54.6752 31.6406 54.6752 29.5313C54.6752 27.4219 54.2252 26.0156 53.7752 24.8438C53.3252 23.6719 52.6502 22.5 51.5252 21.3281C50.4002 20.1563 49.5002 19.6875 48.1502 18.9844C47.0252 18.5156 45.6752 18.2813 43.6502 18.0469C41.6252 18.0469 41.1752 18.0469 36.0002 18.0469Z" fill="white"/>
<path d="M36.0002 27.4219C30.6002 27.4219 26.3252 31.875 26.3252 37.5C26.3252 43.125 30.6002 47.5781 36.0002 47.5781C41.4002 47.5781 45.6752 43.125 45.6752 37.5C45.6752 31.875 41.4002 27.4219 36.0002 27.4219ZM36.0002 44.0625C32.6252 44.0625 29.7002 41.25 29.7002 37.5C29.7002 33.9844 32.4002 30.9375 36.0002 30.9375C39.3752 30.9375 42.3002 33.75 42.3002 37.5C42.3002 41.0156 39.3752 44.0625 36.0002 44.0625Z" fill="white"/>
<path d="M45.9002 29.5313C47.1428 29.5313 48.1502 28.4819 48.1502 27.1875C48.1502 25.8931 47.1428 24.8438 45.9002 24.8438C44.6575 24.8438 43.6502 25.8931 43.6502 27.1875C43.6502 28.4819 44.6575 29.5313 45.9002 29.5313Z" fill="white"/>
</svg>
