<svg width="76" height="75" viewBox="0 0 76 75" fill="none" xmlns="http://www.w3.org/2000/svg">
<path d="M63.4148 0L11.7435 0C5.25774 0 0 5.24429 0 11.7134L0 63.2526C0 69.7218 5.25774 74.966 11.7435 74.966H63.4148C69.9006 74.966 75.1583 69.7218 75.1583 63.2526V11.7134C75.1583 5.24429 69.9006 0 63.4148 0Z" fill="#FF0000"/>
<path d="M56.3687 25.7696C54.9595 26.4724 53.5503 26.7067 51.9062 26.9409C53.5503 26.0039 54.7246 24.5982 55.1944 22.7241C53.7852 23.6612 52.1411 24.1297 50.2621 24.5982C48.8529 23.1926 46.7391 22.2556 44.6252 22.2556C39.693 22.2556 35.935 26.9409 37.1094 31.6263C30.7679 31.392 25.131 28.3465 21.1382 23.6612C19.0244 27.1752 20.1988 31.6263 23.4869 33.969C22.3126 33.969 21.1382 33.5005 19.9639 33.0319C19.9639 36.546 22.5475 39.8257 26.0705 40.7628C24.8962 40.9971 23.7218 41.2313 22.5475 40.9971C23.4869 44.0426 26.3054 46.3852 29.8284 46.3852C27.01 48.4937 22.7823 49.665 18.7896 49.1965C22.3126 51.3049 26.3054 52.7105 30.533 52.7105C44.8601 52.7105 52.8457 40.7628 52.3759 29.7522C54.02 28.8151 55.4292 27.4095 56.3687 25.7696Z" fill="white"/>
</svg>
