<svg width="48" height="48" viewBox="0 0 48 48" fill="none" xmlns="http://www.w3.org/2000/svg">
<path d="M44 6H4C1.8 6 0 7.8 0 10V38C0 40.2 1.8 42 4 42H44C46.2 42 47.98 40.2 47.98 38L48 10C48 7.8 46.2 6 44 6ZM16 12C19.32 12 22 14.68 22 18C22 21.32 19.32 24 16 24C12.68 24 10 21.32 10 18C10 14.68 12.68 12 16 12ZM28 36H4V34C4 30 12 27.8 16 27.8C20 27.8 28 30 28 34V36ZM35.7 28H38.98L42 32L38.02 35.98C35.4 34.02 33.46 31.22 32.56 28C32.2 26.72 32 25.38 32 24C32 22.62 32.2 21.28 32.56 20C33.46 16.76 35.4 13.98 38.02 12.02L42 16L38.98 20H35.7C35.26 21.26 35 22.6 35 24C35 25.4 35.26 26.74 35.7 28Z" fill="black"/>
</svg>
